<mxfile host="app.diagrams.net" agent="Mozilla/5.0 (Windows NT 10.0; Win64; x64) AppleWebKit/537.36 (KHTML, like Gecko) Chrome/127.0.0.0 Safari/537.36" version="24.7.7">
  <diagram name="第 1 页" id="k_L87vpVJMxWFClD1Jou">
    <mxGraphModel dx="1953" dy="1013" grid="1" gridSize="10" guides="1" tooltips="1" connect="1" arrows="1" fold="1" page="1" pageScale="1" pageWidth="1654" pageHeight="2336" math="0" shadow="0">
      <root>
        <mxCell id="0" />
        <mxCell id="1" parent="0" />
        <mxCell id="2XFg3Gak4tkVolBtVetQ-1" value="Java Program" style="ellipse;whiteSpace=wrap;html=1;" parent="1" vertex="1">
          <mxGeometry x="168" y="97.5" width="120" height="80" as="geometry" />
        </mxCell>
        <mxCell id="2XFg3Gak4tkVolBtVetQ-3" value="File" style="whiteSpace=wrap;html=1;aspect=fixed;" parent="1" vertex="1">
          <mxGeometry x="398" y="117.5" width="40" height="40" as="geometry" />
        </mxCell>
        <mxCell id="2XFg3Gak4tkVolBtVetQ-6" value="" style="shape=singleArrow;direction=west;whiteSpace=wrap;html=1;" parent="1" vertex="1">
          <mxGeometry x="288" y="127.5" width="110" height="20" as="geometry" />
        </mxCell>
        <mxCell id="2XFg3Gak4tkVolBtVetQ-7" value="InputStream" style="text;html=1;align=center;verticalAlign=middle;resizable=0;points=[];autosize=1;strokeColor=none;fillColor=none;" parent="1" vertex="1">
          <mxGeometry x="308" y="107.5" width="90" height="30" as="geometry" />
        </mxCell>
        <mxCell id="2XFg3Gak4tkVolBtVetQ-8" value="File" style="whiteSpace=wrap;html=1;aspect=fixed;" parent="1" vertex="1">
          <mxGeometry x="30" y="117.5" width="40" height="40" as="geometry" />
        </mxCell>
        <mxCell id="2XFg3Gak4tkVolBtVetQ-9" value="OutputStream" style="text;html=1;align=center;verticalAlign=middle;resizable=0;points=[];autosize=1;strokeColor=none;fillColor=none;" parent="1" vertex="1">
          <mxGeometry x="78" y="107.5" width="100" height="30" as="geometry" />
        </mxCell>
        <mxCell id="2XFg3Gak4tkVolBtVetQ-10" value="" style="shape=singleArrow;direction=north;whiteSpace=wrap;html=1;rotation=-90;" parent="1" vertex="1">
          <mxGeometry x="109.5" y="90" width="20" height="95" as="geometry" />
        </mxCell>
        <mxCell id="2XFg3Gak4tkVolBtVetQ-13" value="" style="shape=umlActor;verticalLabelPosition=bottom;verticalAlign=top;html=1;" parent="1" vertex="1">
          <mxGeometry x="215.5" y="40" width="30" height="50" as="geometry" />
        </mxCell>
        <mxCell id="2EYVOyrGGRu7xW8oFNlG-1" value="" style="shape=singleArrow;direction=north;whiteSpace=wrap;html=1;arrowWidth=0.37428850446430034;arrowSize=0.5231524688269693;" parent="1" vertex="1">
          <mxGeometry x="348" y="97.5" width="10" height="14.5" as="geometry" />
        </mxCell>
        <mxCell id="2EYVOyrGGRu7xW8oFNlG-2" value="" style="shape=singleArrow;direction=north;whiteSpace=wrap;html=1;arrowWidth=0.37428850446430034;arrowSize=0.5231524688269693;" parent="1" vertex="1">
          <mxGeometry x="123" y="97.5" width="10" height="14.5" as="geometry" />
        </mxCell>
        <mxCell id="2EYVOyrGGRu7xW8oFNlG-3" value="Channel" style="text;html=1;align=center;verticalAlign=middle;resizable=0;points=[];autosize=1;strokeColor=none;fillColor=none;" parent="1" vertex="1">
          <mxGeometry x="93" y="67.5" width="70" height="30" as="geometry" />
        </mxCell>
        <mxCell id="2EYVOyrGGRu7xW8oFNlG-4" value="Channel" style="text;html=1;align=center;verticalAlign=middle;resizable=0;points=[];autosize=1;strokeColor=none;fillColor=none;" parent="1" vertex="1">
          <mxGeometry x="318" y="67.5" width="70" height="30" as="geometry" />
        </mxCell>
        <mxCell id="TCFafkOZMmIL3am7oXdM-23" value="" style="group" parent="1" vertex="1" connectable="0">
          <mxGeometry x="1160" y="80" width="360" height="690" as="geometry" />
        </mxCell>
        <mxCell id="2EYVOyrGGRu7xW8oFNlG-6" value="服务端" style="text;html=1;align=center;verticalAlign=middle;resizable=0;points=[];autosize=1;strokeColor=none;fillColor=none;" parent="TCFafkOZMmIL3am7oXdM-23" vertex="1">
          <mxGeometry x="30" width="60" height="30" as="geometry" />
        </mxCell>
        <mxCell id="TCFafkOZMmIL3am7oXdM-2" style="edgeStyle=orthogonalEdgeStyle;rounded=0;orthogonalLoop=1;jettySize=auto;html=1;exitX=0.5;exitY=1;exitDx=0;exitDy=0;entryX=0.5;entryY=0;entryDx=0;entryDy=0;" parent="TCFafkOZMmIL3am7oXdM-23" source="2EYVOyrGGRu7xW8oFNlG-7" target="2EYVOyrGGRu7xW8oFNlG-8" edge="1">
          <mxGeometry relative="1" as="geometry" />
        </mxCell>
        <mxCell id="2EYVOyrGGRu7xW8oFNlG-7" value="开始" style="rounded=1;whiteSpace=wrap;html=1;" parent="TCFafkOZMmIL3am7oXdM-23" vertex="1">
          <mxGeometry x="100" y="20" width="50" height="27" as="geometry" />
        </mxCell>
        <mxCell id="TCFafkOZMmIL3am7oXdM-3" style="edgeStyle=orthogonalEdgeStyle;rounded=0;orthogonalLoop=1;jettySize=auto;html=1;exitX=0.5;exitY=1;exitDx=0;exitDy=0;entryX=0.5;entryY=0;entryDx=0;entryDy=0;" parent="TCFafkOZMmIL3am7oXdM-23" source="2EYVOyrGGRu7xW8oFNlG-8" target="TCFafkOZMmIL3am7oXdM-1" edge="1">
          <mxGeometry relative="1" as="geometry" />
        </mxCell>
        <mxCell id="2EYVOyrGGRu7xW8oFNlG-8" value="Selector启动" style="rounded=0;whiteSpace=wrap;html=1;" parent="TCFafkOZMmIL3am7oXdM-23" vertex="1">
          <mxGeometry x="77.5" y="82.5" width="95" height="30" as="geometry" />
        </mxCell>
        <mxCell id="TCFafkOZMmIL3am7oXdM-7" style="edgeStyle=orthogonalEdgeStyle;rounded=0;orthogonalLoop=1;jettySize=auto;html=1;exitX=0.5;exitY=1;exitDx=0;exitDy=0;entryX=0.5;entryY=0;entryDx=0;entryDy=0;" parent="TCFafkOZMmIL3am7oXdM-23" source="TCFafkOZMmIL3am7oXdM-1" target="TCFafkOZMmIL3am7oXdM-4" edge="1">
          <mxGeometry relative="1" as="geometry" />
        </mxCell>
        <mxCell id="TCFafkOZMmIL3am7oXdM-1" value="ServerSocketChannel启动、&lt;div&gt;绑定监听端口、&lt;/div&gt;&lt;div&gt;注册到Selector、&lt;/div&gt;&lt;div&gt;设置关注事件&lt;/div&gt;" style="rounded=0;whiteSpace=wrap;html=1;" parent="TCFafkOZMmIL3am7oXdM-23" vertex="1">
          <mxGeometry x="41.879999999999995" y="150" width="166.25" height="70" as="geometry" />
        </mxCell>
        <mxCell id="TCFafkOZMmIL3am7oXdM-6" style="edgeStyle=orthogonalEdgeStyle;rounded=0;orthogonalLoop=1;jettySize=auto;html=1;exitX=0.5;exitY=1;exitDx=0;exitDy=0;entryX=0.5;entryY=0;entryDx=0;entryDy=0;" parent="TCFafkOZMmIL3am7oXdM-23" source="TCFafkOZMmIL3am7oXdM-4" target="TCFafkOZMmIL3am7oXdM-5" edge="1">
          <mxGeometry relative="1" as="geometry" />
        </mxCell>
        <mxCell id="TCFafkOZMmIL3am7oXdM-4" value="" style="rhombus;whiteSpace=wrap;html=1;" parent="TCFafkOZMmIL3am7oXdM-23" vertex="1">
          <mxGeometry x="85" y="250" width="80" height="30" as="geometry" />
        </mxCell>
        <mxCell id="TCFafkOZMmIL3am7oXdM-9" style="edgeStyle=orthogonalEdgeStyle;rounded=0;orthogonalLoop=1;jettySize=auto;html=1;exitX=0.5;exitY=1;exitDx=0;exitDy=0;entryX=0.5;entryY=0;entryDx=0;entryDy=0;" parent="TCFafkOZMmIL3am7oXdM-23" source="TCFafkOZMmIL3am7oXdM-5" target="TCFafkOZMmIL3am7oXdM-8" edge="1">
          <mxGeometry relative="1" as="geometry" />
        </mxCell>
        <mxCell id="TCFafkOZMmIL3am7oXdM-5" value="select()，阻塞" style="rounded=0;whiteSpace=wrap;html=1;" parent="TCFafkOZMmIL3am7oXdM-23" vertex="1">
          <mxGeometry x="80" y="310" width="90" height="30" as="geometry" />
        </mxCell>
        <mxCell id="TCFafkOZMmIL3am7oXdM-11" style="edgeStyle=orthogonalEdgeStyle;rounded=0;orthogonalLoop=1;jettySize=auto;html=1;exitX=0.5;exitY=1;exitDx=0;exitDy=0;entryX=0.5;entryY=0;entryDx=0;entryDy=0;" parent="TCFafkOZMmIL3am7oXdM-23" source="TCFafkOZMmIL3am7oXdM-8" target="TCFafkOZMmIL3am7oXdM-10" edge="1">
          <mxGeometry relative="1" as="geometry" />
        </mxCell>
        <mxCell id="TCFafkOZMmIL3am7oXdM-8" value="遍历selectedKey" style="rounded=0;whiteSpace=wrap;html=1;" parent="TCFafkOZMmIL3am7oXdM-23" vertex="1">
          <mxGeometry x="77.5" y="380" width="95" height="30" as="geometry" />
        </mxCell>
        <mxCell id="TCFafkOZMmIL3am7oXdM-14" style="edgeStyle=orthogonalEdgeStyle;rounded=0;orthogonalLoop=1;jettySize=auto;html=1;exitX=0.5;exitY=1;exitDx=0;exitDy=0;entryX=0.5;entryY=0;entryDx=0;entryDy=0;" parent="TCFafkOZMmIL3am7oXdM-23" source="TCFafkOZMmIL3am7oXdM-10" target="TCFafkOZMmIL3am7oXdM-13" edge="1">
          <mxGeometry relative="1" as="geometry" />
        </mxCell>
        <mxCell id="TCFafkOZMmIL3am7oXdM-15" style="edgeStyle=orthogonalEdgeStyle;rounded=0;orthogonalLoop=1;jettySize=auto;html=1;exitX=0.5;exitY=1;exitDx=0;exitDy=0;entryX=0.5;entryY=0;entryDx=0;entryDy=0;" parent="TCFafkOZMmIL3am7oXdM-23" source="TCFafkOZMmIL3am7oXdM-10" target="TCFafkOZMmIL3am7oXdM-12" edge="1">
          <mxGeometry relative="1" as="geometry" />
        </mxCell>
        <mxCell id="TCFafkOZMmIL3am7oXdM-10" value="判断事件类型" style="rhombus;whiteSpace=wrap;html=1;" parent="TCFafkOZMmIL3am7oXdM-23" vertex="1">
          <mxGeometry x="85" y="440" width="80" height="40" as="geometry" />
        </mxCell>
        <mxCell id="TCFafkOZMmIL3am7oXdM-16" style="edgeStyle=orthogonalEdgeStyle;rounded=0;orthogonalLoop=1;jettySize=auto;html=1;exitX=0.5;exitY=1;exitDx=0;exitDy=0;entryX=0.5;entryY=0;entryDx=0;entryDy=0;" parent="TCFafkOZMmIL3am7oXdM-23" source="TCFafkOZMmIL3am7oXdM-12" target="TCFafkOZMmIL3am7oXdM-17" edge="1">
          <mxGeometry relative="1" as="geometry">
            <mxPoint x="120" y="590" as="targetPoint" />
          </mxGeometry>
        </mxCell>
        <mxCell id="TCFafkOZMmIL3am7oXdM-12" value="accept 事件处理逻辑" style="rounded=0;whiteSpace=wrap;html=1;" parent="TCFafkOZMmIL3am7oXdM-23" vertex="1">
          <mxGeometry y="520" width="120" height="30" as="geometry" />
        </mxCell>
        <mxCell id="TCFafkOZMmIL3am7oXdM-18" style="edgeStyle=orthogonalEdgeStyle;rounded=0;orthogonalLoop=1;jettySize=auto;html=1;exitX=0.5;exitY=1;exitDx=0;exitDy=0;entryX=0.5;entryY=0;entryDx=0;entryDy=0;" parent="TCFafkOZMmIL3am7oXdM-23" source="TCFafkOZMmIL3am7oXdM-13" target="TCFafkOZMmIL3am7oXdM-17" edge="1">
          <mxGeometry relative="1" as="geometry" />
        </mxCell>
        <mxCell id="TCFafkOZMmIL3am7oXdM-13" value="readable事件处理逻辑" style="rounded=0;whiteSpace=wrap;html=1;" parent="TCFafkOZMmIL3am7oXdM-23" vertex="1">
          <mxGeometry x="130" y="520" width="130" height="30" as="geometry" />
        </mxCell>
        <mxCell id="TCFafkOZMmIL3am7oXdM-19" style="edgeStyle=orthogonalEdgeStyle;rounded=0;orthogonalLoop=1;jettySize=auto;html=1;exitX=0.5;exitY=1;exitDx=0;exitDy=0;entryX=1;entryY=0.5;entryDx=0;entryDy=0;" parent="TCFafkOZMmIL3am7oXdM-23" source="TCFafkOZMmIL3am7oXdM-17" target="TCFafkOZMmIL3am7oXdM-8" edge="1">
          <mxGeometry relative="1" as="geometry">
            <Array as="points">
              <mxPoint x="125" y="640" />
              <mxPoint x="310" y="640" />
              <mxPoint x="310" y="395" />
            </Array>
          </mxGeometry>
        </mxCell>
        <mxCell id="TCFafkOZMmIL3am7oXdM-21" style="edgeStyle=orthogonalEdgeStyle;rounded=0;orthogonalLoop=1;jettySize=auto;html=1;exitX=0.5;exitY=1;exitDx=0;exitDy=0;entryX=0.5;entryY=0;entryDx=0;entryDy=0;" parent="TCFafkOZMmIL3am7oXdM-23" source="TCFafkOZMmIL3am7oXdM-17" target="TCFafkOZMmIL3am7oXdM-20" edge="1">
          <mxGeometry relative="1" as="geometry" />
        </mxCell>
        <mxCell id="TCFafkOZMmIL3am7oXdM-17" value="事件处理结束" style="rounded=0;whiteSpace=wrap;html=1;" parent="TCFafkOZMmIL3am7oXdM-23" vertex="1">
          <mxGeometry x="87.5" y="590" width="75" height="30" as="geometry" />
        </mxCell>
        <mxCell id="TCFafkOZMmIL3am7oXdM-22" style="edgeStyle=orthogonalEdgeStyle;rounded=0;orthogonalLoop=1;jettySize=auto;html=1;exitX=1;exitY=0.5;exitDx=0;exitDy=0;entryX=1;entryY=0.5;entryDx=0;entryDy=0;" parent="TCFafkOZMmIL3am7oXdM-23" source="TCFafkOZMmIL3am7oXdM-20" target="TCFafkOZMmIL3am7oXdM-4" edge="1">
          <mxGeometry relative="1" as="geometry">
            <Array as="points">
              <mxPoint x="360" y="680" />
              <mxPoint x="360" y="265" />
            </Array>
          </mxGeometry>
        </mxCell>
        <mxCell id="TCFafkOZMmIL3am7oXdM-20" value="遍历结束" style="rounded=0;whiteSpace=wrap;html=1;" parent="TCFafkOZMmIL3am7oXdM-23" vertex="1">
          <mxGeometry x="95" y="670" width="60" height="20" as="geometry" />
        </mxCell>
        <mxCell id="wMNM3YdEwWt4oIQOHs1E-8" value="" style="group" parent="1" vertex="1" connectable="0">
          <mxGeometry x="109.5" y="230" width="460.5" height="350" as="geometry" />
        </mxCell>
        <mxCell id="wMNM3YdEwWt4oIQOHs1E-3" value="" style="rounded=0;whiteSpace=wrap;html=1;" parent="wMNM3YdEwWt4oIQOHs1E-8" vertex="1">
          <mxGeometry x="0.5" width="460" height="350" as="geometry" />
        </mxCell>
        <mxCell id="TCFafkOZMmIL3am7oXdM-24" value="RPCClient 接口层" style="rounded=0;whiteSpace=wrap;html=1;" parent="wMNM3YdEwWt4oIQOHs1E-8" vertex="1">
          <mxGeometry x="90.5" y="200" width="342" height="30" as="geometry" />
        </mxCell>
        <mxCell id="TCFafkOZMmIL3am7oXdM-25" value="ClientProxy" style="rounded=0;whiteSpace=wrap;html=1;" parent="wMNM3YdEwWt4oIQOHs1E-8" vertex="1">
          <mxGeometry x="90.5" y="110" width="342" height="50" as="geometry" />
        </mxCell>
        <mxCell id="TCFafkOZMmIL3am7oXdM-26" value="NettyClient" style="rounded=0;whiteSpace=wrap;html=1;" parent="wMNM3YdEwWt4oIQOHs1E-8" vertex="1">
          <mxGeometry x="118.5" y="280" width="120" height="60" as="geometry" />
        </mxCell>
        <mxCell id="TCFafkOZMmIL3am7oXdM-27" value="SimpleClient" style="rounded=0;whiteSpace=wrap;html=1;" parent="wMNM3YdEwWt4oIQOHs1E-8" vertex="1">
          <mxGeometry x="300.5" y="280" width="120" height="60" as="geometry" />
        </mxCell>
        <mxCell id="TCFafkOZMmIL3am7oXdM-28" value="TestClient 真正调用服务的客户端" style="rounded=0;whiteSpace=wrap;html=1;" parent="wMNM3YdEwWt4oIQOHs1E-8" vertex="1">
          <mxGeometry x="92.5" y="30" width="340" height="40" as="geometry" />
        </mxCell>
        <mxCell id="TCFafkOZMmIL3am7oXdM-31" value="" style="endArrow=block;dashed=1;endFill=0;endSize=12;html=1;rounded=0;exitX=0.5;exitY=0;exitDx=0;exitDy=0;entryX=0.5;entryY=1;entryDx=0;entryDy=0;" parent="wMNM3YdEwWt4oIQOHs1E-8" source="TCFafkOZMmIL3am7oXdM-26" target="TCFafkOZMmIL3am7oXdM-24" edge="1">
          <mxGeometry width="160" relative="1" as="geometry">
            <mxPoint x="380.5" y="260" as="sourcePoint" />
            <mxPoint x="540.5" y="260" as="targetPoint" />
            <Array as="points">
              <mxPoint x="178.5" y="260" />
              <mxPoint x="210.5" y="260" />
              <mxPoint x="261.5" y="260" />
            </Array>
          </mxGeometry>
        </mxCell>
        <mxCell id="TCFafkOZMmIL3am7oXdM-32" value="" style="endArrow=block;dashed=1;endFill=0;endSize=12;html=1;rounded=0;exitX=0.5;exitY=0;exitDx=0;exitDy=0;entryX=0.5;entryY=1;entryDx=0;entryDy=0;" parent="wMNM3YdEwWt4oIQOHs1E-8" source="TCFafkOZMmIL3am7oXdM-27" target="TCFafkOZMmIL3am7oXdM-24" edge="1">
          <mxGeometry width="160" relative="1" as="geometry">
            <mxPoint x="176.5" y="290" as="sourcePoint" />
            <mxPoint x="261.5" y="240" as="targetPoint" />
            <Array as="points">
              <mxPoint x="360.5" y="260" />
              <mxPoint x="260.5" y="260" />
            </Array>
          </mxGeometry>
        </mxCell>
        <mxCell id="wMNM3YdEwWt4oIQOHs1E-1" value="" style="endArrow=none;dashed=1;html=1;rounded=0;exitX=0;exitY=0.25;exitDx=0;exitDy=0;entryX=1;entryY=0.25;entryDx=0;entryDy=0;" parent="wMNM3YdEwWt4oIQOHs1E-8" source="wMNM3YdEwWt4oIQOHs1E-3" target="wMNM3YdEwWt4oIQOHs1E-3" edge="1">
          <mxGeometry width="50" height="50" relative="1" as="geometry">
            <mxPoint x="41.5" y="90" as="sourcePoint" />
            <mxPoint x="461.5" y="90" as="targetPoint" />
          </mxGeometry>
        </mxCell>
        <mxCell id="wMNM3YdEwWt4oIQOHs1E-4" value="" style="endArrow=none;dashed=1;html=1;rounded=0;exitX=0;exitY=0.25;exitDx=0;exitDy=0;entryX=1;entryY=0.25;entryDx=0;entryDy=0;" parent="wMNM3YdEwWt4oIQOHs1E-8" edge="1">
          <mxGeometry width="50" height="50" relative="1" as="geometry">
            <mxPoint y="174.65999999999997" as="sourcePoint" />
            <mxPoint x="460" y="174.65999999999997" as="targetPoint" />
          </mxGeometry>
        </mxCell>
        <mxCell id="wMNM3YdEwWt4oIQOHs1E-5" value="服务注册中心" style="text;html=1;align=center;verticalAlign=middle;whiteSpace=wrap;rounded=0;" parent="wMNM3YdEwWt4oIQOHs1E-8" vertex="1">
          <mxGeometry x="11.5" y="125" width="57" height="20" as="geometry" />
        </mxCell>
        <mxCell id="wMNM3YdEwWt4oIQOHs1E-6" value="底层网络通信" style="text;html=1;align=center;verticalAlign=middle;whiteSpace=wrap;rounded=0;" parent="wMNM3YdEwWt4oIQOHs1E-8" vertex="1">
          <mxGeometry x="13.5" y="250" width="60" height="30" as="geometry" />
        </mxCell>
        <mxCell id="wMNM3YdEwWt4oIQOHs1E-7" value="调用接口层" style="text;html=1;align=center;verticalAlign=middle;whiteSpace=wrap;rounded=0;" parent="wMNM3YdEwWt4oIQOHs1E-8" vertex="1">
          <mxGeometry x="13.5" y="30" width="60" height="30" as="geometry" />
        </mxCell>
        <mxCell id="Rb7pyPfZnXw177VyNwoD-34" value="" style="group" vertex="1" connectable="0" parent="1">
          <mxGeometry x="310" y="898" width="952" height="540" as="geometry" />
        </mxCell>
        <mxCell id="Rb7pyPfZnXw177VyNwoD-1" value="" style="rounded=0;whiteSpace=wrap;html=1;" vertex="1" parent="Rb7pyPfZnXw177VyNwoD-34">
          <mxGeometry width="952" height="540" as="geometry" />
        </mxCell>
        <mxCell id="Rb7pyPfZnXw177VyNwoD-24" value="" style="rounded=0;whiteSpace=wrap;html=1;fillColor=#dae8fc;strokeColor=#6c8ebf;dashed=1;" vertex="1" parent="Rb7pyPfZnXw177VyNwoD-34">
          <mxGeometry x="307" y="170" width="570" height="305" as="geometry" />
        </mxCell>
        <mxCell id="Rb7pyPfZnXw177VyNwoD-2" value="" style="rounded=0;whiteSpace=wrap;html=1;align=center;" vertex="1" parent="Rb7pyPfZnXw177VyNwoD-34">
          <mxGeometry x="62" y="80" width="120" height="400" as="geometry" />
        </mxCell>
        <mxCell id="Rb7pyPfZnXw177VyNwoD-15" style="edgeStyle=orthogonalEdgeStyle;rounded=0;orthogonalLoop=1;jettySize=auto;html=1;entryX=0;entryY=0.75;entryDx=0;entryDy=0;" edge="1" parent="Rb7pyPfZnXw177VyNwoD-34" source="Rb7pyPfZnXw177VyNwoD-2" target="Rb7pyPfZnXw177VyNwoD-8">
          <mxGeometry relative="1" as="geometry">
            <mxPoint x="192" y="125" as="sourcePoint" />
            <Array as="points">
              <mxPoint x="262" y="125" />
              <mxPoint x="262" y="125" />
            </Array>
          </mxGeometry>
        </mxCell>
        <mxCell id="Rb7pyPfZnXw177VyNwoD-10" style="edgeStyle=orthogonalEdgeStyle;rounded=0;orthogonalLoop=1;jettySize=auto;html=1;exitX=0.5;exitY=0;exitDx=0;exitDy=0;entryX=0.25;entryY=1;entryDx=0;entryDy=0;" edge="1" parent="Rb7pyPfZnXw177VyNwoD-34" source="Rb7pyPfZnXw177VyNwoD-3" target="Rb7pyPfZnXw177VyNwoD-8">
          <mxGeometry relative="1" as="geometry" />
        </mxCell>
        <mxCell id="Rb7pyPfZnXw177VyNwoD-3" value="&lt;font style=&quot;font-size: 18px;&quot;&gt;本地管理系统&lt;/font&gt;" style="rounded=0;whiteSpace=wrap;html=1;" vertex="1" parent="Rb7pyPfZnXw177VyNwoD-34">
          <mxGeometry x="332" y="240" width="113" height="40" as="geometry" />
        </mxCell>
        <mxCell id="Rb7pyPfZnXw177VyNwoD-4" value="&lt;font style=&quot;font-size: 18px;&quot;&gt;本地管理系统&lt;/font&gt;" style="rounded=0;whiteSpace=wrap;html=1;" vertex="1" parent="Rb7pyPfZnXw177VyNwoD-34">
          <mxGeometry x="535.5" y="240" width="113" height="40" as="geometry" />
        </mxCell>
        <mxCell id="Rb7pyPfZnXw177VyNwoD-12" style="edgeStyle=orthogonalEdgeStyle;rounded=0;orthogonalLoop=1;jettySize=auto;html=1;exitX=0.5;exitY=0;exitDx=0;exitDy=0;entryX=0.75;entryY=1;entryDx=0;entryDy=0;" edge="1" parent="Rb7pyPfZnXw177VyNwoD-34" source="Rb7pyPfZnXw177VyNwoD-5" target="Rb7pyPfZnXw177VyNwoD-8">
          <mxGeometry relative="1" as="geometry" />
        </mxCell>
        <mxCell id="Rb7pyPfZnXw177VyNwoD-5" value="&lt;font style=&quot;font-size: 18px;&quot;&gt;本地管理系统&lt;/font&gt;" style="rounded=0;whiteSpace=wrap;html=1;" vertex="1" parent="Rb7pyPfZnXw177VyNwoD-34">
          <mxGeometry x="732" y="240" width="113" height="40" as="geometry" />
        </mxCell>
        <mxCell id="Rb7pyPfZnXw177VyNwoD-26" style="edgeStyle=orthogonalEdgeStyle;rounded=0;orthogonalLoop=1;jettySize=auto;html=1;exitX=0.006;exitY=0.383;exitDx=0;exitDy=0;entryX=1;entryY=0.25;entryDx=0;entryDy=0;exitPerimeter=0;" edge="1" parent="Rb7pyPfZnXw177VyNwoD-34" source="Rb7pyPfZnXw177VyNwoD-8" target="Rb7pyPfZnXw177VyNwoD-18">
          <mxGeometry relative="1" as="geometry" />
        </mxCell>
        <mxCell id="Rb7pyPfZnXw177VyNwoD-8" value="&lt;font style=&quot;font-size: 18px;&quot;&gt;注册中心&lt;/font&gt;" style="rounded=0;whiteSpace=wrap;html=1;" vertex="1" parent="Rb7pyPfZnXw177VyNwoD-34">
          <mxGeometry x="532" y="80" width="120" height="60" as="geometry" />
        </mxCell>
        <mxCell id="Rb7pyPfZnXw177VyNwoD-11" style="edgeStyle=orthogonalEdgeStyle;rounded=0;orthogonalLoop=1;jettySize=auto;html=1;exitX=0.5;exitY=0;exitDx=0;exitDy=0;entryX=0.5;entryY=1;entryDx=0;entryDy=0;" edge="1" parent="Rb7pyPfZnXw177VyNwoD-34" source="Rb7pyPfZnXw177VyNwoD-4" target="Rb7pyPfZnXw177VyNwoD-8">
          <mxGeometry relative="1" as="geometry" />
        </mxCell>
        <mxCell id="Rb7pyPfZnXw177VyNwoD-13" value="&lt;font style=&quot;font-size: 24px;&quot;&gt;&lt;b style=&quot;&quot;&gt;...&lt;/b&gt;&lt;/font&gt;" style="text;html=1;align=center;verticalAlign=middle;whiteSpace=wrap;rounded=0;" vertex="1" parent="Rb7pyPfZnXw177VyNwoD-34">
          <mxGeometry x="462" y="240" width="60" height="30" as="geometry" />
        </mxCell>
        <mxCell id="Rb7pyPfZnXw177VyNwoD-14" value="&lt;font style=&quot;font-size: 24px;&quot;&gt;&lt;b style=&quot;&quot;&gt;...&lt;/b&gt;&lt;/font&gt;" style="text;html=1;align=center;verticalAlign=middle;whiteSpace=wrap;rounded=0;" vertex="1" parent="Rb7pyPfZnXw177VyNwoD-34">
          <mxGeometry x="662" y="240" width="60" height="30" as="geometry" />
        </mxCell>
        <mxCell id="Rb7pyPfZnXw177VyNwoD-21" style="edgeStyle=orthogonalEdgeStyle;rounded=0;orthogonalLoop=1;jettySize=auto;html=1;exitX=0.25;exitY=1;exitDx=0;exitDy=0;entryX=0.25;entryY=0;entryDx=0;entryDy=0;" edge="1" parent="Rb7pyPfZnXw177VyNwoD-34" source="Rb7pyPfZnXw177VyNwoD-18" target="Rb7pyPfZnXw177VyNwoD-17">
          <mxGeometry relative="1" as="geometry" />
        </mxCell>
        <mxCell id="Rb7pyPfZnXw177VyNwoD-31" style="edgeStyle=orthogonalEdgeStyle;rounded=0;orthogonalLoop=1;jettySize=auto;html=1;exitX=0.75;exitY=1;exitDx=0;exitDy=0;entryX=0.75;entryY=0;entryDx=0;entryDy=0;" edge="1" parent="Rb7pyPfZnXw177VyNwoD-34" source="Rb7pyPfZnXw177VyNwoD-18" target="Rb7pyPfZnXw177VyNwoD-29">
          <mxGeometry relative="1" as="geometry" />
        </mxCell>
        <mxCell id="Rb7pyPfZnXw177VyNwoD-18" value="&lt;font style=&quot;font-size: 18px;&quot;&gt;中央管理系统&lt;/font&gt;" style="text;html=1;align=center;verticalAlign=middle;whiteSpace=wrap;rounded=0;" vertex="1" parent="Rb7pyPfZnXw177VyNwoD-34">
          <mxGeometry x="62" y="95" width="120" height="30" as="geometry" />
        </mxCell>
        <mxCell id="Rb7pyPfZnXw177VyNwoD-23" style="edgeStyle=orthogonalEdgeStyle;rounded=0;orthogonalLoop=1;jettySize=auto;html=1;exitX=1;exitY=0.25;exitDx=0;exitDy=0;entryX=0.003;entryY=0.728;entryDx=0;entryDy=0;entryPerimeter=0;" edge="1" parent="Rb7pyPfZnXw177VyNwoD-34" source="Rb7pyPfZnXw177VyNwoD-22" target="Rb7pyPfZnXw177VyNwoD-24">
          <mxGeometry relative="1" as="geometry" />
        </mxCell>
        <mxCell id="Rb7pyPfZnXw177VyNwoD-33" style="edgeStyle=orthogonalEdgeStyle;rounded=0;orthogonalLoop=1;jettySize=auto;html=1;exitX=0.25;exitY=0;exitDx=0;exitDy=0;" edge="1" parent="Rb7pyPfZnXw177VyNwoD-34" source="Rb7pyPfZnXw177VyNwoD-22">
          <mxGeometry relative="1" as="geometry">
            <mxPoint x="99.65217391304373" y="310" as="targetPoint" />
          </mxGeometry>
        </mxCell>
        <mxCell id="Rb7pyPfZnXw177VyNwoD-22" value="&lt;font style=&quot;font-size: 18px;&quot;&gt;Netty&lt;/font&gt;" style="rounded=0;whiteSpace=wrap;html=1;" vertex="1" parent="Rb7pyPfZnXw177VyNwoD-34">
          <mxGeometry x="77" y="380" width="90" height="50" as="geometry" />
        </mxCell>
        <mxCell id="Rb7pyPfZnXw177VyNwoD-25" style="edgeStyle=orthogonalEdgeStyle;rounded=0;orthogonalLoop=1;jettySize=auto;html=1;exitX=0.003;exitY=0.809;exitDx=0;exitDy=0;entryX=1;entryY=0.75;entryDx=0;entryDy=0;exitPerimeter=0;" edge="1" parent="Rb7pyPfZnXw177VyNwoD-34" source="Rb7pyPfZnXw177VyNwoD-24" target="Rb7pyPfZnXw177VyNwoD-22">
          <mxGeometry relative="1" as="geometry" />
        </mxCell>
        <mxCell id="Rb7pyPfZnXw177VyNwoD-32" style="edgeStyle=orthogonalEdgeStyle;rounded=0;orthogonalLoop=1;jettySize=auto;html=1;exitX=0.5;exitY=1;exitDx=0;exitDy=0;entryX=0.5;entryY=0;entryDx=0;entryDy=0;" edge="1" parent="Rb7pyPfZnXw177VyNwoD-34" source="Rb7pyPfZnXw177VyNwoD-17" target="Rb7pyPfZnXw177VyNwoD-22">
          <mxGeometry relative="1" as="geometry" />
        </mxCell>
        <mxCell id="Rb7pyPfZnXw177VyNwoD-17" value="" style="rounded=0;whiteSpace=wrap;html=1;" vertex="1" parent="Rb7pyPfZnXw177VyNwoD-34">
          <mxGeometry x="62" y="250" width="120" height="60" as="geometry" />
        </mxCell>
        <mxCell id="Rb7pyPfZnXw177VyNwoD-28" value="" style="group" vertex="1" connectable="0" parent="Rb7pyPfZnXw177VyNwoD-34">
          <mxGeometry x="62" y="250" width="120" height="60" as="geometry" />
        </mxCell>
        <mxCell id="Rb7pyPfZnXw177VyNwoD-19" value="&lt;font style=&quot;font-size: 18px;&quot;&gt;代理&lt;/font&gt;" style="text;html=1;align=center;verticalAlign=middle;whiteSpace=wrap;rounded=0;" vertex="1" parent="Rb7pyPfZnXw177VyNwoD-28">
          <mxGeometry x="30" y="15" width="50" height="25" as="geometry" />
        </mxCell>
        <mxCell id="Rb7pyPfZnXw177VyNwoD-29" value="&lt;font style=&quot;font-size: 14px;&quot;&gt;缓存&lt;/font&gt;" style="rounded=0;whiteSpace=wrap;html=1;" vertex="1" parent="Rb7pyPfZnXw177VyNwoD-34">
          <mxGeometry x="122" y="170" width="40" height="60" as="geometry" />
        </mxCell>
        <mxCell id="Rb7pyPfZnXw177VyNwoD-30" style="edgeStyle=orthogonalEdgeStyle;rounded=0;orthogonalLoop=1;jettySize=auto;html=1;exitX=0.25;exitY=0;exitDx=0;exitDy=0;entryX=0.582;entryY=0.969;entryDx=0;entryDy=0;entryPerimeter=0;" edge="1" parent="Rb7pyPfZnXw177VyNwoD-34" source="Rb7pyPfZnXw177VyNwoD-29" target="Rb7pyPfZnXw177VyNwoD-18">
          <mxGeometry relative="1" as="geometry" />
        </mxCell>
      </root>
    </mxGraphModel>
  </diagram>
</mxfile>
